<svg width="425" height="274" viewBox="0 0 425 274" fill="none" xmlns="http://www.w3.org/2000/svg">
  <g clip-path="url(#clip0_52_295)">
    <path d="M46.88 272.62C72.4729 272.62 93.22 251.873 93.22 226.28C93.22 200.687 72.4729 179.94 46.88 179.94C21.2871 179.94 0.539978 200.687 0.539978 226.28C0.539978 251.873 21.2871 272.62 46.88 272.62Z" fill="#0986FF"/>
    <path d="M46.88 273.17C21.03 273.17 0 252.14 0 226.29C0 200.44 21.03 179.41 46.88 179.41C72.73 179.41 93.76 200.44 93.76 226.29C93.77 252.13 72.73 273.17 46.88 273.17ZM46.88 180.48C21.62 180.48 1.07001 201.03 1.07001 226.29C1.07001 251.55 21.62 272.1 46.88 272.1C72.14 272.1 92.69 251.55 92.69 226.29C92.69 201.02 72.14 180.48 46.88 180.48Z" fill="black"/>
    <path d="M361.05 204.19H281.3C263.44 204.19 248.97 189.71 248.97 171.86C248.97 154 263.45 139.53 281.3 139.53H361.06C378.92 139.53 393.39 154.01 393.39 171.86C393.39 189.71 378.91 204.19 361.05 204.19Z" fill="#FF4F3E"/>
    <path d="M361.05 204.73H281.3C263.17 204.73 248.43 189.98 248.43 171.86C248.43 153.74 263.18 138.99 281.3 138.99H361.06C379.19 138.99 393.93 153.74 393.93 171.86C393.93 189.98 379.18 204.73 361.05 204.73ZM281.3 140.06C263.77 140.06 249.51 154.32 249.51 171.85C249.51 189.38 263.77 203.64 281.3 203.64H361.06C378.59 203.64 392.85 189.38 392.85 171.85C392.85 154.32 378.59 140.06 361.06 140.06H281.3Z" fill="black"/>
    <path d="M418.64 183.77L336.54 101.67C332.33 97.46 332.33 90.64 336.54 86.43L418.64 4.32999C422.85 0.119985 429.67 0.119985 433.88 4.32999L515.98 86.43C520.19 90.64 520.19 97.46 515.98 101.67L433.88 183.77C429.67 187.98 422.85 187.98 418.64 183.77Z" fill="#36BA57"/>
    <path d="M426.26 187.47C423.36 187.47 420.46 186.37 418.26 184.16L336.16 102.06C331.75 97.65 331.75 90.47 336.16 86.06L418.26 3.96C422.67 -0.450004 429.85 -0.450004 434.26 3.96L516.36 86.06C520.77 90.47 520.77 97.65 516.36 102.06L434.26 184.16C432.06 186.36 429.16 187.47 426.26 187.47ZM419.02 183.39C423.01 187.38 429.51 187.38 433.5 183.39L515.6 101.29C519.59 97.3 519.59 90.8 515.6 86.81L433.5 4.71C429.51 0.719996 423.01 0.719996 419.02 4.71L336.92 86.81C332.93 90.8 332.93 97.3 336.92 101.29L419.02 183.39Z" fill="black"/>
    <path d="M409.02 273.17C396.82 273.17 386.93 263.28 386.93 251.08V225.2C386.93 213 396.82 203.11 409.02 203.11C421.22 203.11 431.11 213 431.11 225.2V251.07C431.11 263.27 421.22 273.17 409.02 273.17Z" fill="#0986FF"/>
    <path d="M409.02 273.7C396.54 273.7 386.39 263.55 386.39 251.07V225.2C386.39 212.72 396.54 202.57 409.02 202.57C421.5 202.57 431.65 212.72 431.65 225.2V251.07C431.65 263.55 421.49 273.7 409.02 273.7ZM409.02 203.65C397.13 203.65 387.46 213.32 387.46 225.21V251.08C387.46 262.97 397.13 272.64 409.02 272.64C420.91 272.64 430.58 262.97 430.58 251.08V225.2C430.57 213.32 420.9 203.65 409.02 203.65Z" fill="black"/>
    <path d="M212.86 255.92H180.53C175.77 255.92 171.91 252.06 171.91 247.3V221.43C171.91 216.67 175.77 212.81 180.53 212.81H212.86C217.62 212.81 221.48 216.67 221.48 221.43V247.3C221.48 252.06 217.62 255.92 212.86 255.92Z" fill="#202124" stroke="black" stroke-miterlimit="10"/>
    <path d="M47.42 180.48H46.34V156.86C46.34 154.14 48.56 151.92 51.28 151.92H87.62V153H51.28C49.15 153 47.42 154.73 47.42 156.86V180.48Z" fill="black"/>
    <path d="M80.25 157.63C80.09 157.38 80.16 157.05 80.42 156.89L87.37 152.46L80.42 148.03C80.17 147.87 80.09 147.54 80.25 147.29C80.41 147.04 80.75 146.97 80.99 147.12L88.66 152C88.82 152.1 88.91 152.27 88.91 152.45C88.91 152.63 88.82 152.81 88.66 152.9L80.99 157.78C80.9 157.84 80.8 157.86 80.7 157.86C80.53 157.88 80.36 157.79 80.25 157.63Z" fill="black"/>
    <path d="M168.19 233.83H92.03V234.91H168.19V233.83Z" fill="black"/>
    <path d="M171.37 237.6C173.154 237.6 174.6 236.154 174.6 234.37C174.6 232.586 173.154 231.14 171.37 231.14C169.586 231.14 168.14 232.586 168.14 234.37C168.14 236.154 169.586 237.6 171.37 237.6Z" fill="#FFBB00"/>
    <path d="M171.37 237.6C173.154 237.6 174.6 236.154 174.6 234.37C174.6 232.586 173.154 231.14 171.37 231.14C169.586 231.14 168.14 232.586 168.14 234.37C168.14 236.154 169.586 237.6 171.37 237.6Z" stroke="black" stroke-miterlimit="10"/>
    <path d="M342.79 272.09H261.36C258.69 272.09 256.51 269.91 256.51 267.24V238.62C256.51 236.54 254.82 234.85 252.74 234.85H223.64V233.77H252.74C255.41 233.77 257.59 235.95 257.59 238.62V267.24C257.59 269.32 259.28 271.01 261.36 271.01H342.79C344.87 271.01 346.56 269.32 346.56 267.24V237.54H347.64V267.24C347.64 269.91 345.47 272.09 342.79 272.09Z" fill="black"/>
    <path d="M222.14 237.54C223.924 237.54 225.37 236.094 225.37 234.31C225.37 232.526 223.924 231.08 222.14 231.08C220.356 231.08 218.91 232.526 218.91 234.31C218.91 236.094 220.356 237.54 222.14 237.54Z" fill="#FFBB00"/>
    <path d="M222.14 237.54C223.924 237.54 225.37 236.094 225.37 234.31C225.37 232.526 223.924 231.08 222.14 231.08C220.356 231.08 218.91 232.526 218.91 234.31C218.91 236.094 220.356 237.54 222.14 237.54Z" fill="#FFBB00" stroke="black" stroke-miterlimit="10"/>
    <path d="M347.01 203.82V236.94" stroke="black" stroke-miterlimit="10"/>
    <path d="M342.21 230.1C342.44 229.95 342.75 230.02 342.9 230.25L347.01 236.7L351.12 230.25C351.27 230.02 351.58 229.95 351.81 230.1C352.04 230.25 352.11 230.56 351.96 230.79L347.43 237.9C347.34 238.04 347.18 238.13 347.01 238.13C346.84 238.13 346.68 238.04 346.59 237.9L342.06 230.79C342.01 230.71 341.98 230.61 341.98 230.52C341.98 230.36 342.06 230.2 342.21 230.1Z" fill="black"/>
    <path d="M409.55 203.11H408.47V192.41C408.47 190.3 406.75 188.58 404.64 188.58H389.04V187.5H404.64C407.35 187.5 409.55 189.7 409.55 192.41V203.11Z" fill="black"/>
    <path d="M288.3 92.98H331.13" stroke="black" stroke-miterlimit="10"/>
    <path d="M324.29 97.78C324.14 97.55 324.21 97.24 324.44 97.09L330.89 92.98L324.44 88.87C324.21 88.72 324.14 88.41 324.29 88.18C324.44 87.95 324.75 87.88 324.98 88.03L332.09 92.56C332.23 92.65 332.32 92.81 332.32 92.98C332.32 93.15 332.23 93.31 332.09 93.4L324.98 97.93C324.9 97.98 324.8 98.01 324.71 98.01C324.55 98.01 324.39 97.93 324.29 97.78Z" fill="black"/>
    <path d="M333.03 96.21C334.814 96.21 336.26 94.7639 336.26 92.98C336.26 91.1961 334.814 89.75 333.03 89.75C331.246 89.75 329.8 91.1961 329.8 92.98C329.8 94.7639 331.246 96.21 333.03 96.21Z" fill="#FFBB00" stroke="black" stroke-miterlimit="10"/>
    <path d="M173.75 145.06L159.77 131.08C158.09 129.4 158.09 126.67 159.77 124.98L174.11 110.64C175.79 108.96 178.52 108.96 180.21 110.64L194.19 124.62C195.87 126.3 195.87 129.03 194.19 130.72L179.85 145.06C178.16 146.74 175.43 146.74 173.75 145.06Z" fill="#E4E6E9"/>
    <path d="M176.79 146.85C175.55 146.85 174.31 146.38 173.36 145.43L159.38 131.45C157.49 129.56 157.49 126.48 159.38 124.59L173.72 110.25C175.61 108.36 178.69 108.36 180.58 110.25L194.56 124.23C196.45 126.12 196.45 129.2 194.56 131.09L180.22 145.43C179.28 146.38 178.04 146.85 176.79 146.85ZM174.13 144.67C175.6 146.14 177.99 146.14 179.46 144.67L193.8 130.33C195.27 128.86 195.27 126.47 193.8 124.99L179.82 111.01C178.35 109.54 175.96 109.54 174.49 111.01L160.15 125.35C158.68 126.82 158.68 129.21 160.15 130.68L174.13 144.67Z" fill="black"/>
    <path d="M248.97 172.39H247.23C243.37 172.39 240.22 169.25 240.22 165.38V134.3C240.22 131.03 237.56 128.37 234.29 128.37H195.41V127.29H234.29C237.56 127.29 240.22 124.63 240.22 121.36V99.43C240.22 95.57 243.36 92.42 247.23 92.42H289.38V93.5H247.23C243.96 93.5 241.3 96.16 241.3 99.43V121.36C241.3 124.27 239.52 126.77 236.99 127.83C239.52 128.89 241.3 131.39 241.3 134.3V165.38C241.3 168.65 243.96 171.31 247.23 171.31H248.97V172.39Z" fill="black"/>
    <path d="M201 212.81H199.92V188.97C199.92 185.67 197.24 182.99 193.94 182.99H129.3C125.44 182.99 122.29 179.85 122.29 175.98V158.92C122.29 155.65 119.63 152.99 116.36 152.99H87.2V151.91H116.38C119.65 151.91 122.31 149.25 122.31 145.98V133.75C122.31 129.89 125.45 126.74 129.32 126.74H158.54V127.82H129.32C126.05 127.82 123.39 130.48 123.39 133.75V145.98C123.39 148.89 121.61 151.39 119.08 152.45C121.61 153.51 123.39 156.01 123.39 158.92V175.98C123.39 179.25 126.05 181.91 129.32 181.91H193.96C197.85 181.91 201.02 185.08 201.02 188.97V212.81H201Z" fill="black"/>
  </g>
  <defs>
    <clipPath id="clip0_52_295">
      <rect width="520" height="274" fill="white"/>
    </clipPath>
  </defs>
</svg>