<svg width="255" height="108" viewBox="0 0 255 108" fill="none" xmlns="http://www.w3.org/2000/svg">
  <path d="M89.805 95.2227H92.035L97.405 103.963H97.505L97.405 101.653V95.2327H99.265V107.243H97.305L91.665 98.0527H91.565L91.665 100.363V107.243H89.805V95.2227Z" fill="#232529"/>
  <path d="M102.575 107.143C102.095 106.903 101.715 106.563 101.455 106.123C101.185 105.683 101.055 105.183 101.055 104.623C101.055 103.743 101.385 103.043 102.055 102.523C102.725 102.013 103.565 101.753 104.575 101.753C105.075 101.753 105.535 101.803 105.935 101.893C106.335 101.993 106.655 102.093 106.895 102.203V101.763C106.895 101.233 106.695 100.813 106.305 100.483C105.915 100.153 105.415 99.9927 104.795 99.9927C104.355 99.9927 103.945 100.093 103.565 100.283C103.175 100.473 102.865 100.733 102.635 101.073L101.345 100.083C101.725 99.5527 102.215 99.1527 102.825 98.8627C103.425 98.5727 104.095 98.4227 104.835 98.4227C106.075 98.4227 107.035 98.7227 107.705 99.3327C108.375 99.9427 108.715 100.803 108.715 101.903V107.233H106.905V106.213H106.825C106.575 106.583 106.235 106.893 105.785 107.133C105.335 107.383 104.825 107.503 104.245 107.503C103.605 107.503 103.055 107.383 102.575 107.143ZM105.745 105.653C106.105 105.443 106.385 105.153 106.585 104.793C106.785 104.433 106.885 104.053 106.885 103.633C106.625 103.483 106.325 103.373 105.985 103.283C105.645 103.193 105.285 103.153 104.915 103.153C104.225 103.153 103.715 103.293 103.385 103.563C103.065 103.833 102.895 104.193 102.895 104.633C102.895 105.023 103.045 105.343 103.345 105.593C103.645 105.843 104.035 105.973 104.515 105.973C104.985 105.973 105.385 105.873 105.745 105.653Z" fill="#232529"/>
  <path d="M112.705 107.313C112.365 107.183 112.095 107.023 111.885 106.813C111.405 106.323 111.165 105.653 111.165 104.813V100.303H109.675V98.6727H111.165V96.2527H113.005V98.6727H115.085V100.303H113.005V104.433C113.005 104.903 113.095 105.233 113.275 105.433C113.445 105.663 113.735 105.773 114.145 105.773C114.335 105.773 114.505 105.743 114.645 105.693C114.795 105.643 114.945 105.563 115.115 105.453V107.243C114.745 107.413 114.295 107.493 113.775 107.493C113.395 107.503 113.035 107.443 112.705 107.313Z" fill="#232529"/>
  <path d="M117.615 107.143C117.135 106.903 116.755 106.563 116.495 106.123C116.235 105.683 116.095 105.183 116.095 104.623C116.095 103.743 116.425 103.043 117.095 102.523C117.765 102.013 118.605 101.753 119.615 101.753C120.115 101.753 120.575 101.803 120.975 101.893C121.375 101.993 121.695 102.093 121.935 102.203V101.763C121.935 101.233 121.735 100.813 121.345 100.483C120.955 100.153 120.455 99.9927 119.835 99.9927C119.395 99.9927 118.985 100.093 118.605 100.283C118.215 100.473 117.905 100.733 117.675 101.073L116.385 100.083C116.765 99.5527 117.255 99.1527 117.865 98.8627C118.465 98.5727 119.135 98.4227 119.875 98.4227C121.115 98.4227 122.075 98.7227 122.745 99.3327C123.415 99.9427 123.755 100.803 123.755 101.903V107.233H121.945V106.213H121.865C121.615 106.583 121.275 106.893 120.825 107.133C120.375 107.383 119.865 107.503 119.285 107.503C118.645 107.503 118.095 107.383 117.615 107.143ZM120.785 105.653C121.145 105.443 121.425 105.153 121.625 104.793C121.825 104.433 121.925 104.053 121.925 103.633C121.665 103.483 121.365 103.373 121.025 103.283C120.685 103.193 120.325 103.153 119.955 103.153C119.265 103.153 118.755 103.293 118.425 103.563C118.105 103.833 117.935 104.193 117.935 104.633C117.935 105.023 118.085 105.343 118.385 105.593C118.685 105.843 119.075 105.973 119.555 105.973C120.025 105.973 120.425 105.873 120.785 105.653Z" fill="#232529"/>
  <path d="M125.615 95.2227H127.465V107.233H125.615V95.2227Z" fill="#232529"/>
  <path d="M137.975 95.2227H139.755L134.775 107.233H132.995L137.975 95.2227Z" fill="#232529"/>
  <path d="M145.575 95.2227H149.805C150.525 95.2227 151.175 95.3827 151.765 95.6927C152.355 96.0027 152.825 96.4427 153.165 97.0027C153.505 97.5627 153.675 98.1927 153.675 98.9027C153.675 99.7127 153.415 100.423 152.895 101.053C152.375 101.683 151.725 102.103 150.945 102.313L150.925 102.393L154.215 107.143V107.243H152.035L148.865 102.543H147.455V107.243H145.575V95.2227ZM149.745 100.793C150.305 100.793 150.775 100.613 151.175 100.253C151.565 99.8927 151.765 99.4327 151.765 98.8727C151.765 98.5627 151.685 98.2627 151.535 97.9627C151.375 97.6727 151.155 97.4327 150.865 97.2527C150.575 97.0727 150.225 96.9727 149.825 96.9727H147.455V100.783H149.745V100.793Z" fill="#232529"/>
  <path d="M155.735 95.2227H157.965L163.335 103.963H163.435L163.335 101.653V95.2327H165.195V107.243H163.235L157.595 98.0527H157.495L157.595 100.363V107.243H155.735V95.2227Z" fill="#232529"/>
  <path d="M16.885 46.9827H0.304993V79.9527H16.885V46.9827Z" fill="#0095FF"/>
  <path d="M47.625 80.4827C57.0194 80.4827 64.635 72.867 64.635 63.4727C64.635 54.0783 57.0194 46.4627 47.625 46.4627C38.2306 46.4627 30.615 54.0783 30.615 63.4727C30.615 72.867 38.2306 80.4827 47.625 80.4827Z" fill="#0095FF"/>
  <path d="M22.315 83.4627H19.115L28.215 43.4727H31.405L22.315 83.4627Z" fill="#232529"/>
  <path d="M78.985 49.6627H97.205V54.1427H83.675V62.4327H95.865V66.8727H83.675V75.1627H97.205V79.6427H78.985V49.6627Z" fill="#232529"/>
  <path d="M107.095 68.8027L99.725 58.2927H105.085L109.815 65.2427H109.945L114.465 58.2927H119.995L112.535 68.8027L120.075 79.6527H114.625L109.845 72.4527H109.715L105.065 79.6527H99.615L107.095 68.8027Z" fill="#232529"/>
  <path d="M129.325 79.8527C128.485 79.5427 127.805 79.1227 127.275 78.6127C126.075 77.3927 125.475 75.7227 125.475 73.6227V62.3527H121.745V58.2927H125.475V52.2627H130.085V58.2927H135.275V62.3527H130.085V72.6627C130.085 73.8327 130.305 74.6627 130.755 75.1527C131.175 75.7227 131.895 76.0127 132.935 76.0127C133.405 76.0127 133.825 75.9527 134.195 75.8227C134.555 75.6927 134.945 75.4927 135.365 75.2127V79.6927C134.445 80.1127 133.325 80.3227 132.015 80.3227C131.055 80.3227 130.155 80.1727 129.325 79.8527Z" fill="#232529"/>
  <path d="M142.285 78.8627C140.625 77.8827 139.325 76.5427 138.385 74.8227C137.445 73.1027 136.985 71.1727 136.985 69.0227C136.985 66.9827 137.435 65.0927 138.345 63.3427C139.255 61.5927 140.515 60.2127 142.135 59.1727C143.755 58.1427 145.595 57.6227 147.665 57.6227C149.815 57.6227 151.675 58.1027 153.255 59.0427C154.835 59.9927 156.035 61.2927 156.855 62.9427C157.675 64.5927 158.095 66.4527 158.095 68.5127C158.095 68.9027 158.055 69.3927 157.965 69.9827H141.595C141.765 71.9627 142.465 73.4927 143.715 74.5727C144.955 75.6527 146.405 76.1827 148.055 76.1827C149.365 76.1827 150.505 75.8827 151.465 75.2827C152.425 74.6827 153.205 73.8627 153.785 72.8327L157.685 74.6727C156.675 76.4327 155.365 77.8127 153.745 78.8227C152.125 79.8327 150.185 80.3327 147.925 80.3327C145.825 80.3227 143.945 79.8427 142.285 78.8627ZM153.405 66.4627C153.345 65.7127 153.115 64.9627 152.695 64.2227C152.275 63.4827 151.645 62.8627 150.785 62.3627C149.935 61.8627 148.895 61.6127 147.665 61.6127C146.185 61.6127 144.935 62.0527 143.915 62.9327C142.895 63.8127 142.195 64.9927 141.795 66.4727H153.405V66.4627Z" fill="#232529"/>
  <path d="M161.655 58.2927H166.055V61.1027H166.265C166.875 60.0927 167.795 59.2627 169.005 58.6127C170.215 57.9527 171.515 57.6327 172.875 57.6327C175.475 57.6327 177.445 58.3927 178.805 59.9127C180.155 61.4327 180.835 63.5127 180.835 66.1327V79.6627H176.225V66.7627C176.225 65.0827 175.815 63.8627 174.985 63.0727C174.165 62.2927 173.025 61.9027 171.575 61.9027C170.545 61.9027 169.625 62.1927 168.815 62.7627C168.005 63.3327 167.375 64.0927 166.925 65.0427C166.475 65.9927 166.255 67.0127 166.255 68.1027V79.6627H161.645V58.2927H161.655Z" fill="#232529"/>
  <path d="M189.305 78.8627C187.745 77.8827 186.505 76.5427 185.595 74.8227C184.685 73.1027 184.235 71.1527 184.235 68.9827C184.235 66.8127 184.685 64.8527 185.595 63.1427C186.505 61.4227 187.735 60.0827 189.305 59.1027C190.865 58.1227 192.615 57.6327 194.545 57.6327C196.055 57.6327 197.405 57.9727 198.605 58.6427C199.805 59.3127 200.715 60.1327 201.325 61.1127H201.535L201.325 58.0927V49.6727H205.935V79.6627H201.535V76.9027H201.325C200.715 77.8527 199.805 78.6627 198.605 79.3327C197.405 80.0027 196.045 80.3427 194.545 80.3427C192.615 80.3227 190.865 79.8427 189.305 78.8627ZM198.335 75.2127C199.295 74.6227 200.075 73.7927 200.655 72.7027C201.245 71.6127 201.535 70.3727 201.535 68.9727C201.535 67.5727 201.245 66.3427 200.655 65.2627C200.065 64.1927 199.295 63.3527 198.335 62.7727C197.375 62.1827 196.335 61.8927 195.215 61.8927C194.095 61.8927 193.055 62.1827 192.075 62.7727C191.095 63.3627 190.315 64.1927 189.725 65.2627C189.135 66.3427 188.845 67.5727 188.845 68.9727C188.845 70.3727 189.135 71.6127 189.725 72.7027C190.315 73.7927 191.095 74.6327 192.075 75.2127C193.055 75.8027 194.095 76.0927 195.215 76.0927C196.325 76.0927 197.365 75.8027 198.335 75.2127Z" fill="#232529"/>
  <path d="M214.785 78.8627C213.125 77.8827 211.825 76.5427 210.885 74.8227C209.945 73.1027 209.485 71.1727 209.485 69.0227C209.485 66.9827 209.935 65.0927 210.845 63.3427C211.755 61.5927 213.015 60.2127 214.635 59.1727C216.255 58.1427 218.095 57.6227 220.165 57.6227C222.315 57.6227 224.175 58.1027 225.755 59.0427C227.335 59.9927 228.535 61.2927 229.355 62.9427C230.175 64.5927 230.595 66.4527 230.595 68.5127C230.595 68.9027 230.555 69.3927 230.465 69.9827H214.095C214.265 71.9627 214.965 73.4927 216.215 74.5727C217.455 75.6527 218.905 76.1827 220.555 76.1827C221.865 76.1827 223.005 75.8827 223.965 75.2827C224.925 74.6827 225.705 73.8627 226.285 72.8327L230.185 74.6727C229.175 76.4327 227.865 77.8127 226.245 78.8227C224.625 79.8327 222.685 80.3327 220.425 80.3327C218.325 80.3227 216.445 79.8427 214.785 78.8627ZM225.905 66.4627C225.845 65.7127 225.615 64.9627 225.195 64.2227C224.775 63.4827 224.145 62.8627 223.285 62.3627C222.435 61.8627 221.395 61.6127 220.165 61.6127C218.685 61.6127 217.435 62.0527 216.415 62.9327C215.395 63.8127 214.695 64.9927 214.295 66.4727H225.905V66.4627Z" fill="#232529"/>
  <path d="M238.065 78.8627C236.505 77.8827 235.265 76.5427 234.355 74.8227C233.445 73.1027 232.995 71.1527 232.995 68.9827C232.995 66.8127 233.445 64.8527 234.355 63.1427C235.265 61.4227 236.495 60.0827 238.065 59.1027C239.625 58.1227 241.375 57.6327 243.305 57.6327C244.815 57.6327 246.165 57.9727 247.365 58.6427C248.565 59.3127 249.475 60.1327 250.085 61.1127H250.295L250.085 58.0927V49.6727H254.695V79.6627H250.295V76.9027H250.085C249.475 77.8527 248.565 78.6627 247.365 79.3327C246.165 80.0027 244.805 80.3427 243.305 80.3427C241.375 80.3227 239.625 79.8427 238.065 78.8627ZM247.095 75.2127C248.055 74.6227 248.835 73.7927 249.415 72.7027C250.005 71.6127 250.295 70.3727 250.295 68.9727C250.295 67.5727 250.005 66.3427 249.415 65.2627C248.825 64.1927 248.055 63.3527 247.095 62.7727C246.135 62.1827 245.095 61.8927 243.975 61.8927C242.855 61.8927 241.815 62.1827 240.835 62.7727C239.855 63.3627 239.075 64.1927 238.485 65.2627C237.895 66.3427 237.605 67.5727 237.605 68.9727C237.605 70.3727 237.895 71.6127 238.485 72.7027C239.075 73.7927 239.855 74.6327 240.835 75.2127C241.815 75.8027 242.855 76.0927 243.975 76.0927C245.085 76.0927 246.125 75.8027 247.095 75.2127Z" fill="#232529"/>
  <path d="M59.005 17.3527C59.005 7.79267 67.025 0.0026702 76.595 0.0026702C78.795 -0.0373298 80.985 0.372669 83.025 1.19267C85.065 2.01267 86.925 3.23267 88.485 4.78267L85.125 8.12267C82.835 5.91267 79.775 4.70267 76.595 4.74267C69.615 4.74267 64.165 10.3627 64.165 17.3527C64.165 24.3427 69.605 29.9527 76.595 29.9527C81.115 29.9527 83.695 28.1327 85.345 26.4827C86.695 25.1227 87.585 23.1727 87.925 20.5327H76.595V15.7727H92.535C92.715 16.7527 92.805 17.7527 92.785 18.7527C92.785 22.3027 91.815 26.7027 88.685 29.8327C85.635 32.9927 81.745 34.6627 76.595 34.6627C67.025 34.6727 59.005 26.9127 59.005 17.3527Z" fill="#212123"/>
  <path d="M105.665 12.3627C99.495 12.3627 94.465 17.0627 94.465 23.5227C94.465 29.9827 99.495 34.6727 105.665 34.6727C111.835 34.6727 116.865 29.9327 116.865 23.5127C116.865 17.0927 111.835 12.3527 105.665 12.3627ZM105.665 30.2927C102.285 30.2927 99.365 27.5027 99.365 23.5227C99.365 19.5427 102.275 16.7527 105.665 16.7527C109.045 16.7527 111.955 19.5027 111.955 23.5227C111.955 27.5427 109.045 30.2927 105.665 30.2927Z" fill="#212123"/>
  <path d="M130.095 12.3627C123.925 12.3627 118.895 17.0627 118.895 23.5227C118.895 29.9827 123.925 34.6727 130.095 34.6727C136.265 34.6727 141.295 29.9327 141.295 23.5127C141.305 17.0927 136.275 12.3527 130.095 12.3627ZM130.095 30.2927C126.715 30.2927 123.795 27.5027 123.795 23.5227C123.795 19.5427 126.715 16.7527 130.095 16.7527C133.475 16.7527 136.395 19.5027 136.395 23.5227C136.395 27.5527 133.485 30.2927 130.095 30.2927Z" fill="#212123"/>
  <path d="M173.035 1.19267H168.135V34.0127H173.035V1.19267Z" fill="#212123"/>
  <path d="M173.035 1.19267H168.135V34.0127H173.035V1.19267Z" fill="#212123"/>
  <path d="M186.475 30.2927C183.975 30.2927 182.205 29.1527 181.065 26.9127L195.995 20.7327L195.495 19.4727C194.565 16.9727 191.735 12.3727 185.945 12.3727C180.155 12.3727 175.415 16.9027 175.415 23.5327C175.415 29.7927 180.155 34.6927 186.495 34.6927C188.335 34.7027 190.145 34.2527 191.775 33.3927C193.395 32.5227 194.785 31.2727 195.795 29.7427L191.995 27.2027C190.705 29.0527 188.975 30.2927 186.475 30.2927ZM186.095 16.6727C188.045 16.6727 189.685 17.6427 190.235 19.0427L180.255 23.1827C180.135 18.8727 183.605 16.6727 186.095 16.6727Z" fill="#212123"/>
  <path d="M160.095 13.0327V14.8427H159.925C158.825 13.5227 156.715 12.3427 154.055 12.3427C148.475 12.3427 143.355 17.2527 143.355 23.5527C143.355 29.8527 148.465 34.6627 154.055 34.6627C156.715 34.6627 158.835 33.4927 159.925 32.1227H160.095V33.7327C160.095 38.0027 157.815 40.2927 154.145 40.2927C151.145 40.2927 149.285 38.1327 148.535 36.3327L144.265 38.1127C145.065 40.0727 146.445 41.7527 148.205 42.9327C149.975 44.1127 152.045 44.7327 154.175 44.7227C159.925 44.7227 164.785 41.3427 164.785 33.0927V13.0327H160.095ZM154.485 30.2927C151.105 30.2927 148.275 27.4627 148.275 23.5727C148.275 19.6827 151.105 16.7627 154.485 16.7627C157.865 16.7627 160.425 19.6427 160.425 23.5727C160.425 27.5027 157.815 30.2927 154.485 30.2927Z" fill="#212123"/>
</svg>